# xmcd CD database file
#
# Track frame offsets:
#	150
#	22475
#	44475
#	66750
#
# Disc length: 1179 seconds
#
# Revision: 0
# Processed by: cddbd v1.5PL3 Copyright (c) Steve Scherf et al.
# Submitted via: CDex 1.51
#
DISCID=38049904
DTITLE=宮地真緒 - 早花咲月〜さはなさづき〜
DYEAR=2004
DGENRE=JPop
TTITLE0=早花咲月〜さはなさづき〜
TTITLE1=花時雨
TTITLE2=早花咲月〜さはなさづき〜 (Instrumental)
TTITLE3=花時雨 (Instrumental)
EXTD=YEAR: 2004
EXTT0=
EXTT1=
EXTT2=
EXTT3=
PLAYORDER=
